<!-- Generated by IcoMoon.io -->
<svg version="1.1" xmlns="http://www.w3.org/2000/svg" width="1024" height="1024" viewBox="0 0 1024 1024">
<g id="icomoon-ignore">
</g>
<path fill="currentColor" d="M512.003 85.332c-235.648 0-426.667 191.018-426.667 426.666s191.019 426.667 426.667 426.667c235.648 0 426.666-191.019 426.666-426.667s-191.018-426.666-426.666-426.666zM362.669 405.333c0-19.611 3.862-39.030 11.368-57.149 7.504-18.117 18.504-34.579 32.371-48.446s30.33-24.867 48.448-32.371c18.117-7.506 37.536-11.368 57.147-11.368s39.029 3.862 57.147 11.368c18.117 7.504 34.579 18.504 48.446 32.371s24.867 30.33 32.371 48.446c7.506 18.118 11.368 37.538 11.368 57.149 0 39.605-15.733 77.589-43.739 105.594-28.005 28.006-65.989 43.739-105.594 43.739s-77.59-15.733-105.595-43.739c-28.005-28.005-43.739-65.989-43.739-105.594zM779.011 724.65c-31.939 40.176-72.542 72.616-118.778 94.899s-96.907 33.83-148.23 33.784c-51.325 0.046-101.997-11.501-148.232-33.784s-86.838-54.723-118.776-94.899c69.162-49.621 163.541-84.651 267.008-84.651s197.845 35.030 267.008 84.651z"></path>
</svg>
